<svg xmlns="http://www.w3.org/2000/svg" viewBox="0 0 64 64" width="64" height="64" fill="none">
  <rect x="2" y="2" width="60" height="60" rx="12" fill="#050a08" />
  <path
    d="M44 12c3.5 0 6 2.8 6 6.4 0 2.5-1.2 4.7-3.2 5.8L38.5 29v11.8c0 6.7-4.1 11.2-10.1 11.2-5.1 0-8.8-3.2-8.8-7.8 0-4.8 3.8-8 9.4-8 1.9 0 3.6.3 5.1.9V24.8c0-3 1.5-5.8 4-7.5l3.4-2.4A4.5 4.5 0 0 1 44 12Z"
    stroke="#00ff99"
    stroke-width="3.5"
    stroke-linecap="round"
    stroke-linejoin="round"
  />
  <circle cx="28.5" cy="44.2" r="4.2" stroke="#00ff99" stroke-width="3" />
  <line x1="38.5" y1="29.4" x2="49.2" y2="23.6" stroke="#00ff99" stroke-width="3" />
</svg>